<?xml version="1.0" encoding="utf-8"?>
<svg version="1.1"
	 xmlns="http://www.w3.org/2000/svg"
	 x="0px" y="0px" width="320px" height="360px" viewBox="0 0 320 360" overflow="visible" enable-background="new 0 0 320 360"
	 xml:space="preserve">
<defs>
</defs>
<path d="M160,360c-4.789,0-9.408-1.14-13.004-3.205L12.89,279.64C5.46,275.37,0,265.688,0,257.118V102.88
	c0-8.569,5.46-18.251,12.89-22.521L147.067,3.204C150.664,1.138,155.246,0,160.036,0c4.789,0,9.39,1.138,12.986,3.204
	l134.098,77.154C314.548,84.629,320,94.311,320,102.88v154.238c0,8.57-5.46,18.252-12.89,22.521l-134.178,77.155
	C169.336,358.86,164.789,360,160,360z M160,16.439c-2.242,0-3.956,0.525-4.812,1.019L20.861,94.611
	C18.492,95.974,16,100.146,16,102.88v154.238c0,2.733,2.492,6.905,4.861,8.267l134.288,77.156c0.857,0.492,2.59,1.02,4.832,1.02
	c2.242,0,3.965-0.527,4.822-1.02l134.331-77.156c2.37-1.361,4.866-5.533,4.866-8.267V102.88c0-2.733-2.492-6.906-4.861-8.269
	L164.851,17.458C163.994,16.965,162.241,16.439,160,16.439z"/>
<path d="M139.862,222.947c-21.371-1.233-37.81-5.344-37.81-22.193c0-8.22,3.699-14.385,9.042-22.192l27.125-41.51l16.851,6.985
	l-16.851,39.044c-0.822,2.056-0.411,3.288,2.055,4.11l11.918,5.343L139.862,222.947z M202.742,222.947
	c-21.371-1.233-37.81-5.344-37.81-22.193c0-8.22,3.699-14.385,9.042-22.192l27.125-41.51l16.85,6.985l-16.85,39.044
	c-0.822,2.056-0.411,3.288,2.055,4.11l11.918,5.343L202.742,222.947z"/>
</svg>
