<?xml version="1.0" encoding="utf-8"?>
<svg version="1.1"
	 xmlns="http://www.w3.org/2000/svg" xmlns:xlink="http://www.w3.org/1999/xlink"
	 x="0px" y="0px" width="320px" height="360px" viewBox="0 0 320 360" overflow="visible" enable-background="new 0 0 320 360"
	 xml:space="preserve">
<defs>
</defs>
<path d="M160.169,360c-4.789,0-9.407-1.14-13.003-3.205L12.974,279.64C5.545,275.37,0,265.688,0,257.118V102.88
	c0-8.569,5.544-18.251,12.974-22.521l134.22-77.154c3.597-2.067,8.2-3.205,12.99-3.205c4.789,0,9.4,1.138,12.996,3.205
	l134.019,77.154C314.628,84.629,320,94.311,320,102.88v154.238c0,8.57-5.375,18.252-12.805,22.521L173.06,356.795
	C169.464,358.86,164.958,360,160.169,360z M160.169,16.439c-2.241,0-3.955,0.525-4.812,1.019L20.946,94.611
	C18.577,95.975,16,100.146,16,102.88v154.238c0,2.733,2.577,6.905,4.946,8.267l134.331,77.156c0.856,0.492,2.611,1.019,4.852,1.019
	c2.242,0,3.976-0.526,4.833-1.019l134.252-77.156c2.37-1.361,4.787-5.533,4.787-8.267V102.88c0-2.733-2.407-6.905-4.777-8.269
	L164.978,17.458C164.121,16.965,162.41,16.439,160.169,16.439z"/>
<path d="M261.118,180.02c0-13.389-16.768-26.078-42.476-33.947c5.932-26.202,3.296-47.049-8.322-53.725
	c-2.679-1.565-5.81-2.306-9.229-2.306v9.188c1.895,0,3.419,0.369,4.697,1.071c5.603,3.213,8.033,15.449,6.138,31.188
	c-0.453,3.872-1.195,7.951-2.101,12.113c-8.076-1.979-16.892-3.503-26.161-4.491c-5.562-7.622-11.33-14.544-17.139-20.601
	c13.431-12.483,26.038-19.322,34.608-19.322V90l0,0c-11.331,0-26.162,8.076-41.159,22.082
	c-14.997-13.925-29.828-21.917-41.158-21.917v9.188c8.529,0,21.176,6.797,34.607,19.197c-5.768,6.057-11.535,12.938-17.015,20.56
	c-9.311,0.988-18.127,2.512-26.203,4.531c-0.947-4.12-1.648-8.116-2.143-11.947c-1.936-15.738,0.454-27.975,6.015-31.229
	c1.236-0.741,2.843-1.071,4.738-1.071v-9.188l0,0c-3.46,0-6.592,0.742-9.311,2.308c-11.577,6.674-14.173,27.479-8.198,53.599
	c-25.626,7.911-42.312,20.561-42.312,33.907c0,13.391,16.768,26.081,42.477,33.95c-5.933,26.201-3.297,47.05,8.322,53.724
	c2.678,1.564,5.809,2.307,9.27,2.307c11.33,0,26.162-8.075,41.158-22.082c14.996,13.924,29.828,21.918,41.158,21.918
	c3.461,0,6.592-0.742,9.312-2.309c11.577-6.674,14.173-27.479,8.198-53.6C244.433,206.059,261.118,193.37,261.118,180.02z
	 M207.477,152.54c-1.524,5.315-3.419,10.796-5.562,16.274c-1.689-3.296-3.461-6.592-5.397-9.888
	c-1.896-3.296-3.914-6.51-5.933-9.641C196.435,150.152,202.08,151.223,207.477,152.54z M188.608,196.419
	c-3.214,5.561-6.509,10.835-9.93,15.738c-6.139,0.536-12.359,0.823-18.622,0.823c-6.221,0-12.442-0.287-18.539-0.783
	c-3.419-4.902-6.758-10.136-9.97-15.655c-3.131-5.398-5.974-10.877-8.57-16.397c2.554-5.521,5.438-11.041,8.528-16.439
	c3.213-5.562,6.509-10.835,9.929-15.738c6.139-0.534,12.359-0.823,18.622-0.823c6.221,0,12.442,0.289,18.54,0.783
	c3.42,4.902,6.756,10.135,9.97,15.655c3.132,5.396,5.975,10.877,8.57,16.397C194.541,185.5,191.698,191.021,188.608,196.419z
	 M201.915,191.062c2.225,5.521,4.12,11.043,5.686,16.398c-5.397,1.317-11.083,2.432-16.974,3.295
	c2.019-3.172,4.038-6.428,5.933-9.764C198.454,197.696,200.226,194.358,201.915,191.062z M160.139,235.021
	c-3.832-3.955-7.664-8.363-11.454-13.182c3.708,0.164,7.498,0.286,11.33,0.286c3.872,0,7.704-0.082,11.453-0.286
	C167.761,226.658,163.929,231.066,160.139,235.021z M129.487,210.755c-5.851-0.863-11.495-1.936-16.893-3.254
	c1.524-5.314,3.42-10.793,5.562-16.273c1.689,3.296,3.46,6.592,5.397,9.888C125.491,204.411,127.468,207.624,129.487,210.755z
	 M159.934,125.02c3.831,3.955,7.662,8.362,11.453,13.184c-3.708-0.164-7.499-0.289-11.331-0.289c-3.873,0-7.704,0.083-11.453,0.289
	C152.311,133.382,156.142,128.975,159.934,125.02z M129.446,149.286c-2.019,3.172-4.039,6.428-5.933,9.764
	c-1.896,3.296-3.667,6.592-5.356,9.888c-2.225-5.521-4.12-11.041-5.686-16.397C117.869,151.264,123.554,150.152,129.446,149.286z
	 M92.16,200.868c-14.585-6.221-24.019-14.378-24.019-20.849c0-6.467,9.434-14.666,24.019-20.846
	c3.544-1.524,7.416-2.884,11.413-4.161c2.348,8.075,5.438,16.479,9.269,25.091c-3.79,8.569-6.838,16.933-9.146,24.967
	C99.617,203.793,95.744,202.393,92.16,200.868z M114.325,259.742c-5.603-3.215-8.033-15.45-6.138-31.188
	c0.452-3.872,1.194-7.951,2.101-12.113c8.075,1.978,16.892,3.502,26.161,4.49c5.562,7.623,11.33,14.544,17.139,20.602
	c-13.431,12.483-26.039,19.321-34.607,19.321C117.127,260.813,115.562,260.442,114.325,259.742z M212.05,228.347
	c1.936,15.739-0.453,27.977-6.016,31.229c-1.235,0.743-2.842,1.071-4.737,1.071c-8.529,0-21.177-6.797-34.608-19.199
	c5.769-6.056,11.536-12.937,17.016-20.559c9.311-0.987,18.127-2.513,26.202-4.531C210.854,220.52,211.597,224.517,212.05,228.347z
	 M227.912,200.868c-3.543,1.524-7.416,2.885-11.412,4.16c-2.349-8.075-5.438-16.479-9.27-25.09
	c3.79-8.569,6.839-16.934,9.146-24.967c4.079,1.276,7.951,2.678,11.577,4.202c14.585,6.222,24.019,14.379,24.019,20.846
	C251.931,186.49,242.497,194.688,227.912,200.868z"/>
<circle cx="160.016" cy="180.021" r="18.828"/>
</svg>
