<?xml version="1.0" encoding="utf-8"?>
<svg version="1.1"
	 xmlns="http://www.w3.org/2000/svg" xmlns:xlink="http://www.w3.org/1999/xlink"
	 x="0px" y="0px" width="320px" height="360px" viewBox="0 0 320 360" overflow="visible" enable-background="new 0 0 320 360"
	 xml:space="preserve">
<defs>
</defs>
<path d="M160.096,360c-4.789,0-9.407-1.14-13.003-3.205L12.938,279.64C5.509,275.37,0,265.688,0,257.118V102.88
	c0-8.569,5.508-18.251,12.938-22.521L147.139,3.205C150.735,1.138,155.33,0,160.12,0c4.789,0,9.396,1.138,12.992,3.205
	l134.053,77.154C314.593,84.629,320,94.311,320,102.88v154.238c0,8.57-5.412,18.252-12.841,22.521l-134.154,77.155
	C169.408,358.86,164.885,360,160.096,360z M160.096,16.439c-2.241,0-3.955,0.525-4.812,1.019L20.91,94.611
	c-2.37,1.363-4.91,5.535-4.91,8.269v154.238c0,2.733,2.54,6.905,4.909,8.267l134.312,77.156c0.856,0.492,2.603,1.019,4.844,1.019
	s3.971-0.526,4.828-1.019l134.287-77.156c2.37-1.361,4.821-5.533,4.821-8.267V102.88c0-2.733-2.443-6.905-4.813-8.269
	L164.922,17.458C164.065,16.965,162.336,16.439,160.096,16.439z"/>
<path d="M160.234,90.061L80.013,269.939l0,0h29.911l0,0l16.127-40.25h68.091l16.127,40.25l0,0h29.911l0,0L160.234,90.061
	L160.234,90.061L160.234,90.061L160.234,90.061L160.234,90.061z M183.666,204.879h-46.864l23.432-56.375L183.666,204.879z"/>
</svg>
