<?xml version="1.0" encoding="utf-8"?>
<svg version="1.1"
	 xmlns="http://www.w3.org/2000/svg" xmlns:xlink="http://www.w3.org/1999/xlink"
	 x="0px" y="0px" width="320px" height="360px" viewBox="0 0 320 360" overflow="visible" enable-background="new 0 0 320 360"
	 xml:space="preserve">
<defs>
</defs>
<path d="M57.143,140h205.714v68.572H160V220h-45.714v-11.428H57.143V140z M68.571,197.143h22.857v-34.285h11.428v34.285h11.429
	v-45.715H68.571V197.143z M125.714,151.428v57.145h22.857v-11.43h22.857v-45.715H125.714z M148.571,162.857H160v22.856h-11.429
	V162.857z M182.857,151.428v45.715h22.857v-34.285h11.429v34.285h11.428v-34.285H240v34.285h11.429v-45.715H182.857z"/>
<path d="M160.096,360c-4.789,0-9.407-1.14-13.003-3.205L12.938,279.64C5.509,275.37,0,265.688,0,257.118V102.88
	c0-8.569,5.508-18.251,12.938-22.521L147.139,3.205C150.735,1.138,155.33,0,160.12,0c4.789,0,9.396,1.138,12.992,3.205
	l134.053,77.154C314.593,84.629,320,94.311,320,102.88v154.238c0,8.57-5.412,18.252-12.841,22.521l-134.154,77.155
	C169.408,358.86,164.885,360,160.096,360z M160.096,16.439c-2.241,0-3.955,0.525-4.812,1.019L20.91,94.611
	c-2.37,1.363-4.91,5.535-4.91,8.269v154.238c0,2.733,2.54,6.905,4.909,8.267l134.312,77.156c0.856,0.492,2.603,1.019,4.844,1.019
	s3.971-0.526,4.828-1.019l134.287-77.156c2.37-1.361,4.821-5.533,4.821-8.267V102.88c0-2.733-2.443-6.905-4.813-8.269
	L164.922,17.458C164.065,16.965,162.336,16.439,160.096,16.439z"/>
</svg>
