<?xml version="1.0" encoding="utf-8"?>
<svg version="1.1"
	 xmlns="http://www.w3.org/2000/svg" xmlns:xlink="http://www.w3.org/1999/xlink"
	 x="0px" y="0px" width="320px" height="360px" viewBox="0 0 320 360" overflow="visible" enable-background="new 0 0 320 360"
	 xml:space="preserve">
<defs>
</defs>
<path d="M221.332,121.052c6.596,1.645,11.625,4.576,16.247,9.357c2.394,2.557,5.938,7.218,6.223,8.332
	c0.083,0.324-11.209,7.91-18.058,12.159c-0.246,0.162-1.237-0.903-2.354-2.557c-3.338-4.872-6.841-6.968-12.204-7.336
	c-7.875-0.539-12.988,3.587-12.908,10.472c0,2.021,0.284,3.214,1.113,4.867c1.731,3.59,4.95,5.731,15.05,10.105
	c18.597,7.999,26.551,13.274,31.493,20.782c5.521,8.366,6.762,21.731,3.013,31.664c-4.122,10.804-14.348,18.145-28.735,20.578
	c-4.451,0.785-15.006,0.662-19.79-0.202c-10.428-1.855-20.325-7.012-26.429-13.773c-2.397-2.636-7.051-9.523-6.762-10.024
	c0.123-0.161,1.197-0.82,2.394-1.525l9.647-5.56l7.471-4.333l1.562,2.315c2.188,3.341,6.972,7.914,9.857,9.44
	c8.287,4.372,19.667,3.749,25.274-1.276c2.395-2.187,3.378-4.454,3.378-7.792c0-3.012-0.365-4.332-1.936-6.595
	c-2.021-2.886-6.143-5.319-17.859-10.393c-13.4-5.771-19.171-9.358-24.446-15.05c-3.052-3.302-5.938-8.573-7.135-12.988
	c-0.99-3.671-1.24-12.866-0.455-16.575c2.759-12.984,12.532-21.974,26.639-24.654c4.573-0.863,15.22-0.538,19.706,0.575
	L221.332,121.052z"/>
<path d="M160.349,131.888l0.083,10.634h-33.808v96.067H102.71v-96.067H68.902V132.09l0.282-10.714
	c0.124-0.162,20.7-0.245,45.644-0.201l45.397,0.117L160.349,131.888z"/>
<path d="M160.096,360c-4.789,0-9.407-1.14-13.003-3.205L12.938,279.64C5.509,275.37,0,265.688,0,257.118V102.88
	c0-8.569,5.508-18.251,12.938-22.521L147.139,3.205C150.735,1.138,155.33,0,160.12,0c4.789,0,9.396,1.138,12.992,3.205
	l134.053,77.154C314.593,84.629,320,94.311,320,102.88v154.238c0,8.57-5.412,18.252-12.841,22.521l-134.154,77.155
	C169.408,358.86,164.885,360,160.096,360z M160.096,16.439c-2.241,0-3.955,0.525-4.812,1.019L20.91,94.611
	c-2.37,1.363-4.91,5.535-4.91,8.269v154.238c0,2.733,2.54,6.905,4.909,8.267l134.312,77.156c0.856,0.492,2.603,1.019,4.844,1.019
	s3.971-0.526,4.828-1.019l134.287-77.156c2.37-1.361,4.821-5.533,4.821-8.267V102.88c0-2.733-2.443-6.905-4.813-8.269
	L164.922,17.458C164.065,16.965,162.336,16.439,160.096,16.439z"/>
</svg>
